<svg xmlns="http://www.w3.org/2000/svg" width="1920" height="1080" viewBox="0 0 1920 1080">
  <defs>
    <linearGradient id="grad1" x1="0%" y1="0%" x2="100%" y2="100%">
      <stop offset="0%" style="stop-color:#2b2d42;stop-opacity:1" />
      <stop offset="100%" style="stop-color:#121420;stop-opacity:1" />
    </linearGradient>
    <pattern id="basketballPattern" patternUnits="userSpaceOnUse" width="200" height="200">
      <circle cx="100" cy="100" r="80" fill="none" stroke="rgba(255, 107, 0, 0.1)" stroke-width="5"/>
      <path d="M 20,100 C 20,55 55,20 100,20 C 145,20 180,55 180,100 C 180,145 145,180 100,180 C 55,180 20,145 20,100 Z" fill="none" stroke="rgba(255, 107, 0, 0.1)" stroke-width="5"/>
      <path d="M 100,20 L 100,180" stroke="rgba(255, 107, 0, 0.1)" stroke-width="5"/>
      <path d="M 20,100 L 180,100" stroke="rgba(255, 107, 0, 0.1)" stroke-width="5"/>
      <path d="M 30,50 C 50,40 75,35 100,35 C 125,35 150,40 170,50" fill="none" stroke="rgba(255, 107, 0, 0.1)" stroke-width="5"/>
      <path d="M 30,150 C 50,160 75,165 100,165 C 125,165 150,160 170,150" fill="none" stroke="rgba(255, 107, 0, 0.1)" stroke-width="5"/>
    </pattern>
  </defs>
  
  <!-- Background -->
  <rect width="1920" height="1080" fill="url(#grad1)"/>
  
  <!-- Basketball Pattern -->
  <rect width="1920" height="1080" fill="url(#basketballPattern)"/>
  
  <!-- Basketball Court Lines -->
  <rect x="710" y="200" width="500" height="800" rx="10" ry="10" fill="none" stroke="rgba(255, 255, 255, 0.1)" stroke-width="5"/>
  <circle cx="960" cy="600" r="80" fill="none" stroke="rgba(255, 255, 255, 0.1)" stroke-width="5"/>
  <path d="M 710,600 L 1210,600" stroke="rgba(255, 255, 255, 0.1)" stroke-width="5"/>
  
  <!-- Basketball Silhouette -->
  <circle cx="1400" cy="400" r="150" fill="rgba(255, 107, 0, 0.2)"/>
  <path d="M 1250,400 L 1550,400" stroke="rgba(255, 107, 0, 0.3)" stroke-width="10"/>
  <path d="M 1400,250 L 1400,550" stroke="rgba(255, 107, 0, 0.3)" stroke-width="10"/>
  <path d="M 1280,280 C 1320,260 1360,250 1400,250 C 1440,250 1480,260 1520,280" fill="none" stroke="rgba(255, 107, 0, 0.3)" stroke-width="10"/>
  <path d="M 1280,520 C 1320,540 1360,550 1400,550 C 1440,550 1480,540 1520,520" fill="none" stroke="rgba(255, 107, 0, 0.3)" stroke-width="10"/>
  
  <!-- Basketball Hoop -->
  <rect x="500" y="300" width="10" height="200" fill="rgba(255, 255, 255, 0.3)"/>
  <rect x="400" y="300" width="100" height="10" fill="rgba(255, 255, 255, 0.3)"/>
  <rect x="400" y="300" width="10" height="50" fill="rgba(255, 255, 255, 0.3)"/>
  <rect x="350" y="350" width="60" height="5" fill="rgba(255, 255, 255, 0.3)"/>
  <rect x="350" y="350" width="5" height="30" fill="rgba(255, 255, 255, 0.3)"/>
  <rect x="405" y="350" width="5" height="30" fill="rgba(255, 255, 255, 0.3)"/>
  <rect x="350" y="380" width="60" height="5" fill="rgba(255, 255, 255, 0.3)"/>
  <circle cx="380" cy="365" r="20" fill="none" stroke="rgba(255, 107, 0, 0.5)" stroke-width="3"/>
  
  <!-- Abstract Shapes -->
  <circle cx="200" cy="200" r="100" fill="rgba(67, 97, 238, 0.1)"/>
  <circle cx="1700" cy="800" r="150" fill="rgba(67, 97, 238, 0.1)"/>
  <circle cx="300" cy="900" r="80" fill="rgba(255, 107, 0, 0.1)"/>
  
  <!-- Dynamic Lines -->
  <path d="M 0,300 L 1920,500" stroke="rgba(255, 255, 255, 0.05)" stroke-width="20"/>
  <path d="M 0,600 L 1920,800" stroke="rgba(255, 255, 255, 0.05)" stroke-width="20"/>
  <path d="M 0,900 L 1920,700" stroke="rgba(255, 255, 255, 0.05)" stroke-width="20"/>
</svg>