<svg xmlns="http://www.w3.org/2000/svg" viewBox="0 0 1000 296">
  <path fill="#253B80" d="M66.4,296h-62c-3,0-5.5-2.2-6-5.1L0.1,296l0,0h0.1l22.3-141.3c0.1-0.5,0.3-1,0.5-1.5c3.2-8,10.9-13.3,19.6-13.3h40.7c18.8,0,33.6,4,44,11.9c9.7,7.4,15.7,17.8,17.8,31c0.1,0.5,0.1,1,0.1,1.5v4.1c0,0.8-0.1,1.5-0.2,2.3c-2.9,32.4-25.9,49.7-67.6,49.7H53.9c-4.7,0-8.7,3.4-9.4,8l-0.1,0.3l-7.3,46.2L36.5,296H66.4z"/>
  <path fill="#179BD7" d="M305.6,0h-62c-3,0-5.5,2.2-6,5.1L215.3,146.4c-0.1,0.5-0.3,1-0.5,1.5c-3.2,8-10.9,13.3-19.6,13.3h-40.7c-18.8,0-33.6-4-44-11.9c-9.7-7.4-15.7-17.8-17.8-31c-0.1-0.5-0.1-1-0.1-1.5v-4.1c0-0.8,0.1-1.5,0.2-2.3c2.9-32.4,25.9-49.7,67.6-49.7h23.5c4.7,0,8.7-3.4,9.4-8l0.1-0.3l7.3-46.2L201.3,0H305.6z"/>
  <path fill="#253B80" d="M666.4,296h-62c-3,0-5.5-2.2-6-5.1L576.1,296l0,0h0.1l22.3-141.3c0.1-0.5,0.3-1,0.5-1.5c3.2-8,10.9-13.3,19.6-13.3h40.7c18.8,0,33.6,4,44,11.9c9.7,7.4,15.7,17.8,17.8,31c0.1,0.5,0.1,1,0.1,1.5v4.1c0,0.8-0.1,1.5-0.2,2.3c-2.9,32.4-25.9,49.7-67.6,49.7h-23.5c-4.7,0-8.7,3.4-9.4,8l-0.1,0.3l-7.3,46.2L636.5,296H666.4z"/>
  <path fill="#179BD7" d="M905.6,0h-62c-3,0-5.5,2.2-6,5.1L815.3,146.4c-0.1,0.5-0.3,1-0.5,1.5c-3.2,8-10.9,13.3-19.6,13.3h-40.7c-18.8,0-33.6-4-44-11.9c-9.7-7.4-15.7-17.8-17.8-31c-0.1-0.5-0.1-1-0.1-1.5v-4.1c0-0.8,0.1-1.5,0.2-2.3c2.9-32.4,25.9-49.7,67.6-49.7h23.5c4.7,0,8.7-3.4,9.4-8l0.1-0.3l7.3-46.2L801.3,0H905.6z"/>
</svg>