<svg xmlns="http://www.w3.org/2000/svg" viewBox="0 0 1000 606">
  <path fill="#2E77BC" d="M1000,482.7c0,68.3-55.4,123.7-123.7,123.7H123.7C55.4,606.4,0,551,0,482.7V123.7C0,55.4,55.4,0,123.7,0h752.6
	C944.6,0,1000,55.4,1000,123.7V482.7z"/>
  <path fill="#FFFFFF" d="M138.7,285.8l-34.2-84.9H50.2v-8.4l-49.4,0v8.4h19.3l55.3,136.6h30.1l32.3-79.9l32.3,79.9h30.1l55.3-136.6h19.3
	v-8.4h-54.5l-34.2,84.9l-34.2-84.9h-29.2L138.7,285.8z"/>
  <path fill="#FFFFFF" d="M999.2,329.1h-54.5l-21.1-32.3h-70.7l-21.1,32.3h-29.2l70.7-108.3h54.5L999.2,329.1z M935.6,271.3l-21.1-32.3
	l-21.1,32.3H935.6z"/>
  <path fill="#FFFFFF" d="M731.5,329.1h-54.5l-21.1-32.3h-70.7l-21.1,32.3h-29.2l70.7-108.3h54.5L731.5,329.1z M667.9,271.3l-21.1-32.3
	l-21.1,32.3H667.9z"/>
  <path fill="#FFFFFF" d="M463.8,329.1h-136v-108h136v25.1h-108v16.7h108v25.1h-108v16.7h108V329.1z"/>
  <path fill="#FFFFFF" d="M999.2,200.9h-136v-108h136V118h-108v16.7h108v25.1h-108v16.7h108V200.9z"/>
  <path fill="#FFFFFF" d="M731.5,200.9h-136v-108h136V118h-108v16.7h108v25.1h-108v16.7h108V200.9z"/>
  <path fill="#FFFFFF" d="M463.8,200.9h-136v-108h136V118h-108v16.7h108v25.1h-108v16.7h108V200.9z"/>
  <path fill="#FFFFFF" d="M299.5,200.9H245l-21.1-32.3h-70.7l-21.1,32.3h-29.2l70.7-108.3h54.5L299.5,200.9z M235.9,143.1l-21.1-32.3
	l-21.1,32.3H235.9z"/>
</svg>