<svg xmlns="http://www.w3.org/2000/svg" viewBox="0 0 1000 618">
  <path fill="#FF5F00" d="M380.2,309c0-99.7,46.7-188.3,119.3-245.9c-53-41.9-120-67-193.2-67C137.2-3.9,0,133.3,0,309s137.2,312.9,306.3,312.9c73.2,0,140.2-25.1,193.2-67C426.9,497.3,380.2,408.7,380.2,309z"/>
  <path fill="#EB001B" d="M380.2,309c0,99.7,46.7,188.3,119.3,245.9c72.6-57.6,119.3-146.2,119.3-245.9S572.1,120.7,499.5,63.1C426.9,120.7,380.2,209.3,380.2,309z"/>
  <path fill="#F79E1B" d="M693.7-3.9c-73.2,0-140.2,25.1-193.2,67c72.6,57.6,119.3,146.2,119.3,245.9s-46.7,188.3-119.3,245.9c53,41.9,120,67,193.2,67C862.8,621.9,1000,484.7,1000,309S862.8-3.9,693.7-3.9z"/>
</svg>