<svg xmlns="http://www.w3.org/2000/svg" viewBox="0 0 1000 324.68">
  <path fill="#00579F" d="M651.17,0c-70.64,0-133.74,36.7-133.74,104.51,0,77.43,113.19,82.43,113.19,121.49,0,16.23-18.47,30.7-49.75,30.7-45.06,0-78.45-20.18-78.45-20.18l-14.38,67.42s38.65,16.91,90.15,16.91c76.28,0,138.43-37.93,138.43-105.74,0-80.89-113.87-85.89-113.87-121.49,0-12.77,15.33-26.56,47.29-26.56,36.19,0,65.65,14.72,65.65,14.72l14.04-65.65S693.17,0,651.17,0"/>
  <path fill="#00579F" d="M2.55,5.84H0L0,7.21l1.87,0c.62,0,1.05.12,1.05.65,0,.41-.31.69-1,.69H0v1.37H1.9c1.58,0,2.4-.67,2.4-1.9,0-1.02-.65-1.53-1.75-1.53M2.1,11.15c-2.29,0-4.1-1.85-4.1-4.1,0-2.27,1.81-4.1,4.1-4.1s4.1,1.83,4.1,4.1c0,2.25-1.81,4.1-4.1,4.1m0-9.57C-.6,1.58-2.55,3.53-2.55,7.05c0,3.5,1.94,5.47,4.65,5.47s4.65-1.97,4.65-5.47c0-3.52-1.94-5.47-4.65-5.47"/>
  <path fill="#00579F" d="M354.33,11.44h-66.54L311.37,155.8h66.54l-23.58-144.36Z"/>
  <path fill="#00579F" d="M324.11,155.8,263.62,30.52c-2.4-4.97-6.79-8.1-11.59-8.1H187.9l-1.7,8.78c22.9,5.5,48.63,16.39,64.17,27.13,9.6,6.62,12.34,12.4,15.5,22.22l51.87,75.25h6.37Z"/>
  <path fill="#FAA61A" d="M135.24,11.44l-31.04,83.93-3.34-16.91L89.5,25.55c-1.7-6.79-6.79-14.04-17.03-14.04H.34L0,15.13c18.47,4.42,39.33,11.59,58.12,19.43l48.97,121.24h66.88l77.77-144.36h-66.5Z"/>
  <path fill="#00579F" d="M850.43,11.44h-51.53c-11.93,0-20.86,3.23-26.13,15.16l-74.2,129.2h66.54l10.36-28.7h63.31l6.11,28.7h58.8l-53.26-144.36Zm-60.77,83.93l26.13-71.66,14.72,71.66h-40.85Z"/>
  <path fill="#00579F" d="M946.16,42.45l9.01-30.94h-62.29L839.18,155.8h66.54l14.72-40.85h57.78c26.56,0,43.59-14.38,48.97-37.27,5.45-23.24-5.79-35.23-31.03-35.23M957.4,83.3h-36.87l11.93-33.01h36.87c10.7,0,13.6,6.11,11.93,11.93-1.7,5.79-7.13,21.08-23.86,21.08"/>
</svg>